<svg xmlns="http://www.w3.org/2000/svg" viewBox="0 0 64 64" width="64" height="64">
  <defs>
    <linearGradient id="g" x1="0" y1="0" x2="1" y2="1">
      <stop offset="0" stop-color="#f6ccd4"/>
      <stop offset="1" stop-color="#ec88a3"/>
    </linearGradient>
  </defs>
  <rect width="64" height="64" rx="16" fill="#fff0f0"/>
  <g fill="url(#g)">
    <!-- main pad -->
    <path d="M32 33c-7.5 0-13 5.2-13 11.4 0 4.7 4 7.1 8.4 7.1 2 0 3.2-.8 4.6-.8s2.6.8 4.6.8c4.4 0 8.4-2.4 8.4-7.1C45 38.2 39.5 33 32 33Z"/>
    <!-- toes -->
    <ellipse cx="14" cy="30" rx="5" ry="6.4"/>
    <ellipse cx="48" cy="30" rx="5" ry="6.4"/>
    <ellipse cx="25" cy="22" rx="4.4" ry="5.8"/>
    <ellipse cx="37" cy="22" rx="4.4" ry="5.8"/>
  </g>
</svg>
